<svg width="99" height="82" viewBox="0 0 99 82" fill="none" xmlns="http://www.w3.org/2000/svg">
<mask id="mask0_15177_57218" style="mask-type:alpha" maskUnits="userSpaceOnUse" x="6" y="0" width="103" height="82">
<rect x="6" width="103" height="82" fill="#D9D9D9"/>
</mask>
<g mask="url(#mask0_15177_57218)">
<path d="M42.5713 67.3767C51.1265 67.3769 58.0625 75.1024 58.0625 84.6326C58.0624 94.1626 51.1265 101.888 42.5713 101.888C34.016 101.888 27.0802 94.1627 27.0801 84.6326C27.0801 75.1023 34.0159 67.3767 42.5713 67.3767ZM32.2646 46.156C33.0875 40.4538 40.6589 30.2926 54.6777 33.1541C54.6652 33.1681 53.8114 34.125 53.2734 34.7488C50.9977 34.3141 43.7862 37.2143 45.6738 44.7058C46.9752 49.036 53.2173 49.8712 53.2734 49.8787C53.2828 49.9455 53.9122 54.2381 61.2129 55.4373C67.8212 55.7737 71.4029 50.5915 71.4277 50.5554C70.5559 61.5749 60.4121 60.3188 60.6797 63.7986C60.7891 65.2152 62.8701 66.7293 64.3975 68.3904C67.4822 71.6245 69.3896 76.0838 69.3896 81.0076C69.3896 81.539 69.3648 82.0651 69.3213 82.5847C69.3494 83.2122 69.3296 83.7749 69.248 84.2449C69.2036 84.5006 69.1039 84.7504 68.96 84.9968C67.2227 92.9531 60.4027 98.891 52.2529 98.8914C52.2202 98.8914 52.187 98.8906 52.1543 98.8904C58.3765 95.7009 62.6112 89.4095 62.6113 82.1687C62.6113 71.7042 53.7683 63.2205 42.8604 63.2205C41.9407 63.2205 41.0357 63.2825 40.1494 63.3992C40.005 63.3213 39.9219 63.2727 39.9131 63.2673C39.9131 63.2673 30.5704 57.9014 32.2646 46.156ZM42.8174 71.825C36.8554 71.825 32.0215 77.7767 32.0215 85.1179C32.0216 92.459 36.8555 98.4099 42.8174 98.4099C48.7789 98.4094 53.6112 92.4587 53.6113 85.1179C53.6113 77.777 48.779 71.8255 42.8174 71.825ZM42.667 75.8835C46.6773 75.8836 49.9287 80.6444 49.9287 86.5173C49.9286 92.3902 46.6772 97.1511 42.667 97.1511C38.6569 97.1509 35.4064 92.39 35.4062 86.5173C35.4063 80.6445 38.6568 75.8838 42.667 75.8835ZM57.7764 34.991C59.2872 34.9914 60.5784 35.9263 61.1045 37.2478C61.6973 37.1017 62.3181 37.0232 62.9561 37.0232C66.7165 37.0236 69.8448 39.7171 70.5166 43.2771C70.6646 43.8416 70.7441 44.4348 70.7441 45.0457C70.7438 47.5929 69.3722 49.8191 67.3271 51.032C66.0856 51.8892 64.5797 52.3931 62.9561 52.3933C59.3628 52.3933 56.3439 49.9345 55.4961 46.6101C54.8668 46.9091 54.1622 47.0777 53.4189 47.0779C50.7457 47.0777 48.5785 44.9131 48.5781 42.2439C48.5784 39.5747 50.7457 37.411 53.4189 37.4109C53.7387 37.411 54.052 37.4426 54.3545 37.5017C54.8086 36.0467 56.1696 34.991 57.7764 34.991Z" fill="url(#paint0_linear_15177_57218)"/>
<g filter="url(#filter0_f_15177_57218)">
<path d="M76.3541 25.3442L70.839 23.8594L76.3541 22.3745L77.839 16.8594L79.3239 22.3745L84.839 23.8594L79.3239 25.3442L77.839 30.8594L76.3541 25.3442Z" fill="url(#paint1_linear_15177_57218)"/>
</g>
<path d="M88.4238 36.5762L90 37L88.4238 37.4238L88 39L87.5762 37.4238L86 37L87.5762 36.5762L88 35L88.4238 36.5762ZM79.3242 22.374L84.8389 23.8594L79.3242 25.3447L77.8389 30.8594L76.3545 25.3447L70.8389 23.8594L76.3545 22.374L77.8389 16.8594L79.3242 22.374ZM56.0039 17.293L56.9619 17.5488L56.0039 17.8047L55.7461 18.7539L55.4883 17.8047L54.5312 17.5488L55.4883 17.293L55.7461 16.3438L56.0039 17.293Z" fill="url(#paint2_linear_15177_57218)"/>
</g>
<defs>
<filter id="filter0_f_15177_57218" x="56.839" y="2.85938" width="42" height="42" filterUnits="userSpaceOnUse" color-interpolation-filters="sRGB">
<feFlood flood-opacity="0" result="BackgroundImageFix"/>
<feBlend mode="normal" in="SourceGraphic" in2="BackgroundImageFix" result="shape"/>
<feGaussianBlur stdDeviation="7" result="effect1_foregroundBlur_15177_57218"/>
</filter>
<linearGradient id="paint0_linear_15177_57218" x1="49.2539" y1="32.656" x2="49" y2="87" gradientUnits="userSpaceOnUse">
<stop stop-color="white"/>
<stop offset="1" stop-color="#999999"/>
</linearGradient>
<linearGradient id="paint1_linear_15177_57218" x1="77.839" y1="16.8594" x2="77.8061" y2="27.8487" gradientUnits="userSpaceOnUse">
<stop stop-color="white"/>
<stop offset="1" stop-color="#999999"/>
</linearGradient>
<linearGradient id="paint2_linear_15177_57218" x1="72.2656" y1="16.3437" x2="72.2316" y2="34.1279" gradientUnits="userSpaceOnUse">
<stop stop-color="white"/>
<stop offset="1" stop-color="#999999"/>
</linearGradient>
</defs>
</svg>
